<svg width="32" height="32" viewBox="0 0 32 32" fill="none" xmlns="http://www.w3.org/2000/svg">
<circle cx="16" cy="16" r="16" fill="#0976B4"/>
<path fill-rule="evenodd" clip-rule="evenodd" d="M9.76704 11.8705C10.8686 11.8705 11.7615 11.0561 11.7615 10.0505C11.7615 9.04394 10.8686 8.22852 9.76704 8.22852C8.66446 8.22852 7.77148 9.04394 7.77148 10.0505C7.77148 11.0561 8.66446 11.8705 9.76704 11.8705Z" fill="white"/>
<path fill-rule="evenodd" clip-rule="evenodd" d="M8.22852 23.5783H11.8072V13.2571H8.22852V23.5783Z" fill="white"/>
<path fill-rule="evenodd" clip-rule="evenodd" d="M16.83 17.838C16.83 16.6543 17.39 15.4969 18.729 15.4969C20.068 15.4969 20.3973 16.6543 20.3973 17.8097V23.4466H23.96V17.5792C23.96 13.5028 21.5504 12.8 20.068 12.8C18.587 12.8 17.7701 13.301 16.83 14.5149V13.1254H13.2572V23.4466H16.83V17.838Z" fill="white"/>
</svg>
