<svg width="32" height="32" viewBox="0 0 32 32" fill="none" xmlns="http://www.w3.org/2000/svg">
<circle cx="16" cy="16" r="16" fill="#55ACEE"/>
<path fill-rule="evenodd" clip-rule="evenodd" d="M23.3289 9.88039C22.8773 10.1697 21.8404 10.59 21.3291 10.59V10.5909C20.7452 9.9809 19.9231 9.6001 19.0115 9.6001C17.2408 9.6001 15.805 11.0359 15.805 12.8059C15.805 13.0518 15.8335 13.2917 15.8861 13.5217H15.8856C13.4837 13.4587 10.8568 12.2548 9.27541 10.1944C8.30312 11.8773 9.14451 13.749 10.2479 14.431C9.87019 14.4595 9.1749 14.3875 8.84764 14.0682C8.82571 15.1852 9.3628 16.6652 11.3212 17.2021C10.944 17.405 10.2764 17.3468 9.98607 17.3037C10.088 18.2466 11.4084 19.4793 12.8523 19.4793C12.3377 20.0746 10.4014 21.1543 8.22852 20.8108C9.70422 21.7087 11.4241 22.2287 13.2445 22.2287C18.4177 22.2287 22.4352 18.0361 22.219 12.8639C22.2181 12.8582 22.2181 12.8525 22.2176 12.8463C22.2181 12.833 22.219 12.8197 22.219 12.8059C22.219 12.7898 22.2176 12.7746 22.2171 12.7591C22.688 12.437 23.3199 11.8673 23.7714 11.1174C23.5096 11.2616 22.7241 11.5504 21.9933 11.6221C22.4623 11.3689 23.1573 10.5397 23.3289 9.88039Z" fill="white"/>
</svg>
